# xmcd
#
# Track frame offsets: 
#        150
#        10065
#        33075
#        47282
#        64665
#        80360
#        102177
#        118687
#        141795
#        161470
#        183215
#        193645
#        210737
#        231002
#
# Disc length: 3424 seconds
#
# Revision: 19
# Processed by: cddbd v1.5.2PL0 Copyright (c) Steve Scherf et al.
# Submitted via: ExactAudioCopy v1.1
#
DISCID=a70d5e0e
DTITLE=Christopher Franke - Enchanting Nature (1994)
DYEAR=1994
DGENRE=Ambient
TTITLE0=Gate of the Shimmering Cave
TTITLE1=Song of the Creek
TTITLE2=Dancing Over Pools
TTITLE3=Celtic Mist
TTITLE4=When the Sun Loves Trees
TTITLE5=Silence of the Eclipse
TTITLE6=Stream Garden
TTITLE7=Purple Waves
TTITLE8=Malibu Trail
TTITLE9=Beach Park
TTITLE10=Big Sur Romance
TTITLE11=Silent Waves
TTITLE12=Woodland Watercolors
TTITLE13=Inside the Cave
EXTD=Remix album of "Pacific Coast Highway".
EXTT0=
EXTT1=Remix of "Lontano Mystery".
EXTT2=Remix of "Driving Into Blue".
EXTT3=
EXTT4=Remix of "Mountain Heights".
EXTT5=Remix of "Black Garden View".
EXTT6=Remix of "Private Diaries".
EXTT7=
EXTT8=Remix of "Malibu Avenue".
EXTT9=Remix of "Wheels on Beach Park".
EXTT10=
EXTT11=
EXTT12=Remix of "Crystal Tree".
EXTT13=Remix of "Electric Becomes Eclectic".
PLAYORDER=
